<?xml version="1.0" standalone="no"?>
<!DOCTYPE svg PUBLIC "-//W3C//DTD SVG 20010904//EN"
 "http://www.w3.org/TR/2001/REC-SVG-20010904/DTD/svg10.dtd">
<svg version="1.0" xmlns="http://www.w3.org/2000/svg"
 width="379.000000pt" height="379.000000pt" viewBox="0 0 379.000000 379.000000"
 preserveAspectRatio="xMidYMid meet">
<metadata>
Created by potrace 1.11, written by Peter Selinger 2001-2013
</metadata>
<g transform="translate(0.000000,379.000000) scale(0.100000,-0.100000)"
fill="#000000" stroke="none">
<path d="M1495 3564 c-209 -124 -387 -228 -395 -232 -9 -4 -54 -30 -100 -58
-78 -46 -296 -175 -338 -199 -144 -82 -392 -229 -390 -230 3 -3 667 -392 738
-433 31 -18 403 -235 650 -379 52 -31 106 -63 120 -72 14 -9 45 -27 70 -40
l45 -23 255 147 c140 81 274 158 297 171 23 13 93 54 155 90 62 37 131 77 153
89 22 12 94 53 160 91 66 39 231 135 368 213 136 79 246 145 245 146 -3 2
-532 309 -608 353 -43 24 -272 158 -475 277 -82 48 -163 95 -180 105 -77 44
-290 167 -323 187 -20 12 -44 22 -52 22 -8 -1 -186 -102 -395 -225z"/>
<path d="M272 1544 l3 -638 150 -84 c83 -46 179 -100 215 -119 36 -20 100 -56
143 -80 42 -24 96 -54 120 -67 23 -13 179 -100 347 -193 168 -93 334 -186 370
-205 36 -20 113 -63 172 -96 l108 -61 642 358 c354 197 670 372 703 391 33 18
101 56 150 84 50 28 99 56 110 61 20 10 20 22 23 649 2 512 0 637 -10 629 -7
-6 -38 -24 -68 -40 -54 -30 -383 -216 -470 -267 -25 -14 -70 -40 -100 -56 -30
-17 -75 -42 -100 -57 -84 -49 -755 -430 -833 -474 l-49 -26 -341 195 c-188
107 -362 206 -387 220 -25 14 -106 60 -180 102 -74 42 -155 88 -180 102 -25
14 -61 34 -80 46 -19 11 -116 66 -215 122 -99 56 -195 111 -213 122 l-32 20 2
-638z"/>
</g>
</svg>
